# xmcd CD database file
#
# Track frame offsets:
#	150
#	2632
#	33928
#	63178
#	87170
#	112446
#	136900
#	180268
#	198409
#	215122
#	236993
#	250467
#	288196
#
# Disc length: 4271 seconds
#
# Revision: 1
# Processed by: cddbd v1.5.2PL0 Copyright (c) Steve Scherf et al.
# Submitted via: CDex 1.51
#
DISCID=bb10ad0d
DTITLE=Philippe LAUDET - Jazz Odyssey - Pour savoir où tu va
DYEAR=2009
DGENRE=Jazz
TTITLE0=ça marchera jamais
TTITLE1=David Blowner, détective de l'espace
TTITLE2=ça marchera jamais 2
TTITLE3=Manteau de pluie
TTITLE4=Desalento 2
TTITLE5=Jaune cendre
TTITLE6=Turbulences
TTITLE7=Sagitarius A - Phase O
TTITLE8=Sagitarius A - Phase A
TTITLE9=Sagitarius A - Phase B
TTITLE10=ça marchera jamais 3
TTITLE11=La nuit des Mégatrolls
TTITLE12=Sagitarius A - Cassiopée
EXTD=YEAR: 2009
EXTT0=
EXTT1=
EXTT2=
EXTT3=
EXTT4=
EXTT5=
EXTT6=
EXTT7=
EXTT8=
EXTT9=
EXTT10=
EXTT11=
EXTT12=
PLAYORDER=
